<svg width="24" height="24" viewBox="0 0 24 24" fill="none" xmlns="http://www.w3.org/2000/svg">
<circle cx="12" cy="12" r="12" fill="black"/>
<path d="M18.4126 7.90199C18.3003 8.00499 18.1539 8.06301 18.0016 8.06499H3.57957C3.06757 8.06499 2.80957 7.47999 3.16357 7.13699L5.53257 4.85299C5.64264 4.74637 5.78933 4.6859 5.94257 4.68399H20.4196C20.9366 4.68399 21.1896 5.27399 20.8296 5.61899L18.4126 7.90199Z" fill="url(#paint0_linear_53_8)"/>
<path d="M18.4126 19.158C18.2995 19.2592 18.1533 19.3154 18.0016 19.316H3.57957C3.06757 19.316 2.80957 18.736 3.16357 18.393L5.53257 16.103C5.64357 15.9986 5.79016 15.9403 5.94257 15.94H20.4196C20.9366 15.94 21.1896 16.526 20.8296 16.868L18.4126 19.158Z" fill="url(#paint1_linear_53_8)"/>
<path d="M18.4126 10.473C18.2995 10.3718 18.1533 10.3156 18.0016 10.315H3.57957C3.06757 10.315 2.80957 10.895 3.16357 11.238L5.53257 13.528C5.64357 13.631 5.78957 13.688 5.94257 13.691H20.4196C20.9366 13.691 21.1896 13.105 20.8296 12.763L18.4126 10.473Z" fill="url(#paint2_linear_53_8)"/>
<defs>
<linearGradient id="paint0_linear_53_8" x1="3.00057" y1="55.041" x2="21.4586" y2="54.871" gradientUnits="userSpaceOnUse">
<stop stop-color="#599DB0"/>
<stop offset="1" stop-color="#47F8C3"/>
</linearGradient>
<linearGradient id="paint1_linear_53_8" x1="3.00057" y1="9.168" x2="21.3406" y2="9.027" gradientUnits="userSpaceOnUse">
<stop stop-color="#C44FE2"/>
<stop offset="1" stop-color="#73B0D0"/>
</linearGradient>
<linearGradient id="paint2_linear_53_8" x1="4.03557" y1="12.003" x2="20.3026" y2="12.003" gradientUnits="userSpaceOnUse">
<stop stop-color="#778CBF"/>
<stop offset="1" stop-color="#5DCDC9"/>
</linearGradient>
</defs>
</svg>
