<?xml version="1.0" encoding="utf-8"?>
<!-- Generator: Adobe Illustrator 26.1.0, SVG Export Plug-In . SVG Version: 6.00 Build 0)  -->
<svg version="1.1" id="Layer_1" xmlns="http://www.w3.org/2000/svg" xmlns:xlink="http://www.w3.org/1999/xlink" x="0px" y="0px"
	 viewBox="0 0 430.9 300.5" style="enable-background:new 0 0 430.9 300.5;" xml:space="preserve">
<style type="text/css">
	.st0{clip-path:url(#SVGID_00000150086319665657123860000010957758542566882977_);fill:#FFFFFF;}
	
		.st1{clip-path:url(#SVGID_00000150086319665657123860000010957758542566882977_);fill-rule:evenodd;clip-rule:evenodd;fill:#FFFFFF;}
</style>
<g>
	<defs>
		<rect id="SVGID_1_" x="12.1" y="49.4" width="430.9" height="300.5"/>
	</defs>
	<clipPath id="SVGID_00000109724154965777870510000010313207867915096511_">
		<use xlink:href="#SVGID_1_"  style="overflow:visible;"/>
	</clipPath>
	<path style="clip-path:url(#SVGID_00000109724154965777870510000010313207867915096511_);fill:#FFFFFF;" d="M171.2,181.5
		c0-0.2,0.1-0.3,0.3-0.3h1.6c2.8,0,3.7,1.6,3.7,3.3c0,0.8-0.3,1.6-0.8,2.2c-0.5,0.6-1.5,1-2.8,1h-1.6c-0.2,0-0.3-0.1-0.3-0.3V181.5z
		 M172.5,182v4.7h0.7c1.7,0,2.3-1.1,2.3-2.3c0-1.2-0.6-2.4-2.3-2.4H172.5z"/>
	<path style="clip-path:url(#SVGID_00000109724154965777870510000010313207867915096511_);fill:#FFFFFF;" d="M178.5,181.5
		c0-0.2,0.1-0.3,0.3-0.3h3.5c0.2,0,0.3,0.1,0.3,0.2v0.5c0,0.2-0.1,0.2-0.3,0.2h-2.5v1.7h2c0.2,0,0.3,0.1,0.3,0.2v0.5
		c0,0.2-0.1,0.2-0.3,0.2h-2v1.8h2.5c0.2,0,0.3,0.1,0.3,0.2v0.5c0,0.2-0.1,0.2-0.3,0.2h-3.5c-0.2,0-0.3-0.1-0.3-0.3V181.5z"/>
	<path style="clip-path:url(#SVGID_00000109724154965777870510000010313207867915096511_);fill:#FFFFFF;" d="M184.3,181.5
		c0-0.2,0.1-0.3,0.3-0.3h2c0.8,0,1.4,0.2,1.8,0.6c0.4,0.4,0.6,0.9,0.6,1.6c0,1.3-0.9,2.1-2.5,2.1h-1v1.9c0,0.2-0.1,0.3-0.3,0.3h-0.6
		c-0.2,0-0.3-0.1-0.3-0.3V181.5z M185.6,182.1v2.3h0.8c1,0,1.5-0.4,1.5-1.1c0-0.7-0.5-1.2-1.5-1.2H185.6z"/>
	<path style="clip-path:url(#SVGID_00000109724154965777870510000010313207867915096511_);fill:#FFFFFF;" d="M194.6,181.5
		c0-0.2,0.1-0.3,0.3-0.3h0.6c0.2,0,0.3,0.1,0.3,0.3v3.8c0,1.3-0.6,2.5-2.7,2.5c-1,0-1.7-0.3-2.1-0.8c-0.4-0.5-0.5-1.1-0.5-1.8v-3.8
		c0-0.2,0.1-0.3,0.3-0.3h0.6c0.2,0,0.3,0.1,0.3,0.3v3.8c0,1,0.5,1.5,1.3,1.5c0.9,0,1.4-0.5,1.4-1.5V181.5z"/>
	<path style="clip-path:url(#SVGID_00000109724154965777870510000010313207867915096511_);fill:#FFFFFF;" d="M200.5,182.1v5.2
		c0,0.2-0.1,0.3-0.3,0.3h-0.6c-0.2,0-0.3-0.1-0.3-0.3v-5.2h-1.6c-0.2,0-0.3-0.1-0.3-0.2v-0.5c0-0.2,0.1-0.2,0.3-0.2h4.5
		c0.2,0,0.3,0.1,0.3,0.2v0.5c0,0.2-0.1,0.2-0.3,0.2H200.5z"/>
	<path style="clip-path:url(#SVGID_00000109724154965777870510000010313207867915096511_);fill:#FFFFFF;" d="M208.4,187.6
		c-0.3,0-0.3-0.1-0.4-0.4l-0.4-1.3H205l-0.4,1.3c-0.1,0.3-0.2,0.4-0.5,0.4h-0.6c-0.2,0-0.3-0.1-0.2-0.4l2.2-5.7
		c0.1-0.3,0.2-0.4,0.6-0.4h0.6c0.3,0,0.4,0.1,0.5,0.4l2.1,5.7c0.1,0.2,0,0.4-0.2,0.4H208.4z M206.2,182.2l-0.9,2.8h1.9L206.2,182.2z
		"/>
	<path style="clip-path:url(#SVGID_00000109724154965777870510000010313207867915096511_);fill:#FFFFFF;" d="M210.7,181.5
		c0-0.2,0.1-0.3,0.3-0.3h1.6c2.8,0,3.7,1.6,3.7,3.3c0,0.8-0.3,1.6-0.8,2.2c-0.5,0.6-1.5,1-2.8,1H211c-0.2,0-0.3-0.1-0.3-0.3V181.5z
		 M212,182v4.7h0.7c1.7,0,2.3-1.1,2.3-2.3c0-1.2-0.6-2.4-2.3-2.4H212z"/>
	<path style="clip-path:url(#SVGID_00000109724154965777870510000010313207867915096511_);fill:#FFFFFF;" d="M221,187.7
		c-2.6,0-3.3-1.8-3.3-3.3c0-0.7,0.1-1.2,0.4-1.9c0.2-0.3,0.3-0.6,0.6-0.8c0.5-0.4,1.3-0.7,2.3-0.7c1.6,0,2.4,0.7,2.9,1.5
		c0.3,0.6,0.4,1.2,0.4,1.9C224.3,186,223.6,187.7,221,187.7 M221,186.7c1.7,0,2-1.2,2-2.3c0-1.1-0.4-2.4-2-2.4
		c-1.7,0-2.1,1.3-2.1,2.4C218.9,185.5,219.3,186.7,221,186.7"/>
	<path style="clip-path:url(#SVGID_00000109724154965777870510000010313207867915096511_);fill:#FFFFFF;" d="M228.7,181.5
		c0-0.2,0.1-0.3,0.3-0.3h3.3c0.2,0,0.3,0.1,0.3,0.2v0.5c0,0.2-0.1,0.2-0.3,0.2H230v1.8h1.9c0.2,0,0.3,0.1,0.3,0.2v0.5
		c0,0.2-0.1,0.2-0.3,0.2H230v2.4c0,0.2-0.1,0.3-0.3,0.3H229c-0.2,0-0.3-0.1-0.3-0.3V181.5z"/>
	<path style="clip-path:url(#SVGID_00000109724154965777870510000010313207867915096511_);fill:#FFFFFF;" d="M234.3,181.5
		c0-0.2,0.1-0.3,0.3-0.3h3.5c0.2,0,0.3,0.1,0.3,0.2v0.5c0,0.2-0.1,0.2-0.3,0.2h-2.5v1.7h2c0.2,0,0.3,0.1,0.3,0.2v0.5
		c0,0.2-0.1,0.2-0.3,0.2h-2v1.8h2.5c0.2,0,0.3,0.1,0.3,0.2v0.5c0,0.2-0.1,0.2-0.3,0.2h-3.5c-0.2,0-0.3-0.1-0.3-0.3V181.5z"/>
	<path style="clip-path:url(#SVGID_00000109724154965777870510000010313207867915096511_);fill:#FFFFFF;" d="M240.1,181.5
		c0-0.2,0.1-0.3,0.3-0.3h1.6c2.8,0,3.7,1.6,3.7,3.3c0,0.8-0.3,1.6-0.8,2.2c-0.6,0.6-1.5,1-2.8,1h-1.6c-0.2,0-0.3-0.1-0.3-0.3V181.5z
		 M241.4,182v4.7h0.7c1.7,0,2.3-1.1,2.3-2.3c0-1.2-0.6-2.4-2.3-2.4H241.4z"/>
	<path style="clip-path:url(#SVGID_00000109724154965777870510000010313207867915096511_);fill:#FFFFFF;" d="M247.4,181.5
		c0-0.2,0.1-0.3,0.3-0.3h3.5c0.2,0,0.3,0.1,0.3,0.2v0.5c0,0.2-0.1,0.2-0.3,0.2h-2.5v1.7h2c0.2,0,0.3,0.1,0.3,0.2v0.5
		c0,0.2-0.1,0.2-0.3,0.2h-2v1.8h2.5c0.2,0,0.3,0.1,0.3,0.2v0.5c0,0.2-0.1,0.2-0.3,0.2h-3.5c-0.2,0-0.3-0.1-0.3-0.3V181.5z"/>
	<path style="clip-path:url(#SVGID_00000109724154965777870510000010313207867915096511_);fill:#FFFFFF;" d="M257.4,187.6
		c-0.3,0-0.4-0.1-0.5-0.4l-1.3-2.1h-1v2.1c0,0.2-0.1,0.3-0.3,0.3h-0.6c-0.2,0-0.3-0.1-0.3-0.3v-5.9c0-0.2,0.1-0.3,0.3-0.3h2
		c1.6,0,2.4,0.8,2.4,2.1c0,0.8-0.5,1.5-1.3,1.8l1.5,2.3c0.2,0.2,0.1,0.4-0.1,0.4H257.4z M254.5,182.1v2.2h0.8c0.9,0,1.4-0.4,1.4-1.1
		c0-0.7-0.5-1.1-1.4-1.1H254.5z"/>
	
		<path style="clip-path:url(#SVGID_00000109724154965777870510000010313207867915096511_);fill-rule:evenodd;clip-rule:evenodd;fill:#FFFFFF;" d="
		M235.6,148.3c-3,2.1-6,4.3-9,6.5c0.6,1.3,1.7,2.7,0.1,4.2c0.6,0,1,0.1,1.2,0.1c0.5,1.6,1,3.1,1.5,4.8c-0.4,0.2-1,0.5-1.7,0.9
		c-0.1-0.8-0.2-1.4-0.3-2.1c-0.6,0.2-1.1,0.6-1.7,0.6c-0.2,0-0.4-0.8-0.7-1.4h-1.2c0.4-0.9,0.7-1.6,1.1-2.5c-0.6,0.3-1,0.6-1.4,0.7
		c-0.7,0.2-1.7,1.4-1.7-0.6c0-0.1-1.2-0.3-1.3-0.2c-0.7,1.9-2.7,2.1-4.1,3.2c-0.6,0.4-1.2,0.8-1.9,1.1c-0.5,0.2-1.1,0.2-1.6,0.2
		c0.3-0.5,0.5-1,1-1.3c1.7-1.3,3.6-2.6,5.3-3.8c0.3-0.2,0.6-0.5,0.7-1c-1.8,1-3.7,2.1-5.5,3.1c-0.4,0.2-1,0.2-1.5,0.3
		c0.3-0.5,0.4-1,0.8-1.4c0.8-0.7,1.8-1.3,2.6-2.2c-0.4,0.2-0.8,0.4-1.3,0.6c-0.3,0.1-0.6,0-1,0c0.1-0.4,0.1-0.8,0.3-1
		c0.3-0.4,0.7-0.6,1.1-0.9c-1.1-0.9-1.1-0.9,0.6-2.8c-0.5,0.2-0.9,0.5-1.4,0.7c-0.4,0.1-0.9,0.1-1.4,0.1c0.2-0.4,0.4-0.8,0.6-1.2
		c0.1-0.2,0.3-0.3,0.5-0.4c-0.1-0.5-0.2-1-0.2-1.5c-1.1,0.6-2.2,1.2-3.3,1.8c-0.1-0.1-0.3-0.1-0.4-0.2c0.2-0.7,0.3-1.4,0.5-2.3
		c-1.3,1-2.4,0.9-3.4-0.5c-0.2-0.3-0.9-0.3-1.4-0.4v-0.9c1.6-1,2.3,0.4,3.2,1.2c0.8-0.4,1.4-0.9,2.1-1.2c0.6-0.3,1.3-0.4,1.9-0.6
		c-0.1,0.6-0.3,1.2-0.4,1.8c0,0.1,0.1,0.2,0.1,0.4c1.4-0.8,2.8-1.6,4.2-2.4c0.2-0.1,0.4-0.3,0.4-0.6c0.5-1.4,1-2.9,1.5-4.5
		c-0.5-0.7,0.3-3.7,1.6-4.9h0.6v2.1c2.4,0.4,0,1.6,0.2,2.4c0.8,0.1,1.5,0.2,0.7,1.3c-0.1,0.1,0.3,0.6,0.6,0.9
		c0.2,0.2,0.6,0.2,0.9,0.3c-0.2,0.3-0.3,0.7-0.5,1c-0.4,0.4-0.9,0.8-1.4,1.1c0.2,0.5,0.4,0.8,0.5,1c0.8-0.1,1.4-0.2,2-0.3
		c-0.2,0.6-0.5,1.2-0.8,2c0.7-0.4,1.4-0.8,2.1-1.1c0.6-0.2,1.2-0.3,1.9-0.5c-0.2,0.6-0.5,1.1-0.8,1.9c0.8-0.4,1.4-0.9,2.1-1.2
		c0.6-0.2,1.3-0.3,1.9-0.5c-0.4,0.6-0.7,1.2-1.2,1.6c-0.6,0.6-1.3,1-2,1.5c0.1,0.1,0.1,0.2,0.2,0.3c2-1.2,4-2.4,6.1-3.4
		c0.5-0.2,1.1,0,1.7,0V148.3z"/>
	<path style="clip-path:url(#SVGID_00000109724154965777870510000010313207867915096511_);fill:#FFFFFF;" d="M73.4,134.9
		c1.1,0,1.7,0.5,1.6,1.6v19.7c0,7.8-4.6,12.2-12.2,12.2c-3.6,0-6.5-0.7-8.5-2c-1.3-0.9-1.9-2-1.9-3.3c0-0.9,0.5-1.8,1.3-1.8
		c0.1,0,1,0.3,2.7,0.9c1.7,0.6,3.3,0.9,4.9,0.9c4.4,0,7.3-2.2,7.3-6.9v-16.2h-7.7c-0.9,0-1.3-0.4-1.3-1.1v-2.7
		c0-0.8,0.5-1.2,1.3-1.2H73.4z"/>
	<path style="clip-path:url(#SVGID_00000109724154965777870510000010313207867915096511_);fill:#FFFFFF;" d="M97.5,168.2
		c-13.3,0-16.6-8.9-16.6-16.7c0-3.4,0.5-6.3,2-9.4c0.8-1.5,1.7-2.9,3-4c2.4-2.2,6.5-3.7,11.6-3.7c8,0,12.3,3.3,14.6,7.7
		c1.5,3.1,2,6,2,9.4C114,159.3,110.7,168.1,97.5,168.2 M97.5,163.1c8.4,0,10.3-6.1,10.3-11.7c0-5.5-1.9-11.9-10.3-11.9
		c-8.4,0-10.4,6.4-10.4,11.9C87.1,157.1,89.1,163.1,97.5,163.1"/>
	<path style="clip-path:url(#SVGID_00000109724154965777870510000010313207867915096511_);fill:#FFFFFF;" d="M141,167.7
		c-1.5,0-2-0.3-2.7-1.8l-6.5-10.5h-5.1v10.7c0,1.1-0.4,1.6-1.6,1.6h-3.2c-1.2,0-1.6-0.5-1.6-1.6v-29.6c0-1.2,0.4-1.6,1.6-1.6H132
		c7.8,0,12.1,4.2,12.1,10.4c0,4.2-2.5,7.5-6.6,9.1l7.6,11.5c0.8,1.2,0.5,1.8-0.7,1.8H141z M126.6,139.6v11h4.2c4.6,0,7.1-2,7.1-5.3
		c0-3.6-2.4-5.7-7.1-5.7H126.6z"/>
	<path style="clip-path:url(#SVGID_00000109724154965777870510000010313207867915096511_);fill:#FFFFFF;" d="M179.6,164.7
		c0,1.1-1.2,2-3.7,2.7c-2.5,0.7-5.5,1-9,1c-5.4,0-9.6-1.5-12.7-4.4c-3.1-2.9-4.7-7.1-4.7-12.5c0-5.3,1.5-9.5,4.6-12.4
		c3.1-3,7.4-4.4,12.9-4.4c3.9,0,6.9,0.5,9.2,1.7c1.8,0.8,2.6,1.9,2.6,3.2c0,1-0.5,2.1-1.3,2.1c0,0-1.2-0.3-3.3-0.9
		c-2.1-0.6-4.3-0.9-6.3-0.9c-7.6,0-12.1,3.7-12.1,11.6c0,8.1,4.6,11.6,11.9,11.6c1.7,0,3.5-0.2,5.5-0.7v-7.1h-6.3
		c-1,0-1.4-0.4-1.4-1.1v-2.7c0-0.8,0.5-1.1,1.5-1.1H178c1,0,1.5,0.5,1.5,1.6V164.7z"/>
	<path style="clip-path:url(#SVGID_00000109724154965777870510000010313207867915096511_);fill:#FFFFFF;" d="M186.1,136.5
		c0-1.2,0.4-1.6,1.7-1.6h17.4c0.9,0,1.4,0.4,1.4,1.1v2.7c0,0.8-0.5,1.2-1.4,1.2h-12.6v8.7h10c0.9,0,1.4,0.4,1.4,1.1v2.7
		c0,0.8-0.5,1.2-1.4,1.2h-10v9.1h12.6c0.9,0,1.4,0.4,1.4,1.1v2.7c0,0.8-0.5,1.2-1.4,1.2h-17.4c-1.2,0-1.7-0.5-1.7-1.6V136.5z"/>
	<path style="clip-path:url(#SVGID_00000109724154965777870510000010313207867915096511_);fill:#FFFFFF;" d="M236.6,161.4
		c0.5,0,4.5,2.3,9.1,2.3c4.9,0,7.1-2,7.1-4.9c0-4.3-5.7-5.3-10.3-7.1c-3.1-1.2-5.6-3.9-5.6-8c0-6.8,5.7-9.1,11.2-9.1
		c3.1,0,5.6,0.5,7.4,1.5c1.7,0.9,2.5,2,2.5,3.4c0,1.2-0.4,1.8-1.1,1.8c-0.6,0-4-1.9-7.9-1.9c-4,0-6,1.3-6,3.9c0,7,15.9,3,15.9,15.2
		c0,6.6-4.5,9.9-12.3,9.9c-4,0-7-0.6-9-1.9c-1.3-0.8-1.9-1.9-1.9-3.1C235.6,162.1,235.9,161.4,236.6,161.4"/>
	<path style="clip-path:url(#SVGID_00000109724154965777870510000010313207867915096511_);fill:#FFFFFF;" d="M279.7,168.2
		c-13.3,0-16.6-8.9-16.6-16.7c0-3.4,0.5-6.3,2-9.4c0.8-1.5,1.7-2.9,3-4c2.4-2.2,6.5-3.7,11.6-3.7c8,0,12.3,3.3,14.6,7.7
		c1.5,3.1,2,6,2,9.4C296.2,159.3,292.9,168.1,279.7,168.2 M279.7,163.1c8.4,0,10.3-6.1,10.3-11.7c0-5.5-1.9-11.9-10.3-11.9
		c-8.4,0-10.4,6.4-10.4,11.9C269.3,157.1,271.3,163.1,279.7,163.1"/>
	<path style="clip-path:url(#SVGID_00000109724154965777870510000010313207867915096511_);fill:#FFFFFF;" d="M302.4,136.5
		c0-1.2,0.4-1.6,1.6-1.6h3.2c1.2,0,1.6,0.5,1.6,1.6v25.8h10.7c0.9,0,1.4,0.4,1.4,1.1v3c0,0.8-0.5,1.2-1.4,1.2h-15.6
		c-1.2,0-1.6-0.4-1.6-1.6V136.5z"/>
	<path style="clip-path:url(#SVGID_00000109724154965777870510000010313207867915096511_);fill:#FFFFFF;" d="M326.3,136.5
		c0-1.2,0.4-1.6,1.6-1.6h3.2c1.2,0,1.6,0.5,1.6,1.6v25.8h10.7c0.9,0,1.4,0.4,1.4,1.1v3c0,0.8-0.5,1.2-1.4,1.2h-15.6
		c-1.2,0-1.6-0.4-1.6-1.6V136.5z"/>
	<path style="clip-path:url(#SVGID_00000109724154965777870510000010313207867915096511_);fill:#FFFFFF;" d="M372.8,167.7
		c-1.4,0-1.7-0.3-2.2-1.8l-2.2-6.5h-12.8l-2.1,6.5c-0.5,1.5-0.9,1.8-2.3,1.8H348c-1.2,0-1.6-0.6-1.1-1.8l10.9-28.9
		c0.7-1.6,1.2-2.1,2.9-2.1h3c1.6,0,2.2,0.5,2.8,2.1l10.8,28.9c0.5,1.2,0.1,1.8-1.1,1.8H372.8z M362,140.2l-4.7,14.2h9.5L362,140.2z"
		/>
	<path style="clip-path:url(#SVGID_00000109724154965777870510000010313207867915096511_);fill:#FFFFFF;" d="M264.4,187.6
		c-0.3,0-0.3-0.1-0.4-0.4l-0.4-1.3H261l-0.4,1.3c-0.1,0.3-0.2,0.4-0.5,0.4h-0.6c-0.2,0-0.3-0.1-0.2-0.4l2.2-5.7
		c0.1-0.3,0.2-0.4,0.6-0.4h0.6c0.3,0,0.4,0.1,0.5,0.4l2.1,5.7c0.1,0.2,0,0.4-0.2,0.4H264.4z M262.3,182.2l-0.9,2.8h1.9L262.3,182.2z
		"/>
	<path style="clip-path:url(#SVGID_00000109724154965777870510000010313207867915096511_);fill:#FFFFFF;" d="M266.8,181.5
		c0-0.2,0.1-0.3,0.3-0.3h0.6c0.2,0,0.3,0.1,0.3,0.3v5.1h2.1c0.2,0,0.3,0.1,0.3,0.2v0.6c0,0.2-0.1,0.2-0.3,0.2h-3.1
		c-0.2,0-0.3-0.1-0.3-0.3V181.5z"/>
</g>
</svg>
