<svg width="71" height="59" viewBox="0 0 71 59" fill="none" xmlns="http://www.w3.org/2000/svg">
<path d="M46.4355 58.3008C43.2129 58.3008 40.6738 57.666 38.8184 56.3965C37.0605 55.0293 36.1816 53.2227 36.1816 50.9766C36.1816 41.3086 37.6953 32.6172 40.7227 24.9023C43.8477 17.0898 47.5586 10.9863 51.8555 6.5918C56.1523 2.19727 59.8145 0 62.8418 0C64.7949 0 66.5527 0.292969 68.1152 0.878906C69.6777 1.46484 70.459 2.49023 70.459 3.95508C70.459 4.83398 70.1172 6.05469 69.4336 7.61719C68.75 9.08203 68.3105 9.96094 68.1152 10.2539C65.0879 15.918 62.8418 21.9727 61.377 28.418C59.9121 34.7656 59.1797 41.9434 59.1797 49.9512C59.1797 52.4902 58.3008 54.541 56.543 56.1035C54.8828 57.5684 52.3438 58.3008 48.9258 58.3008H46.4355ZM10.2539 58.3008C7.03125 58.3008 4.49219 57.666 2.63672 56.3965C0.878906 55.0293 0 53.2227 0 50.9766C0 41.3086 1.51367 32.6172 4.54102 24.9023C7.66602 17.0898 11.377 10.9863 15.6738 6.5918C19.9707 2.19727 23.6328 0 26.6602 0C28.6133 0 30.3711 0.292969 31.9336 0.878906C33.4961 1.46484 34.2773 2.49023 34.2773 3.95508C34.2773 4.83398 33.9355 6.05469 33.252 7.61719C32.5684 9.08203 32.1289 9.96094 31.9336 10.2539C28.9062 15.918 26.6602 21.9727 25.1953 28.418C23.7305 34.7656 22.998 41.9434 22.998 49.9512C22.998 52.4902 22.1191 54.541 20.3613 56.1035C18.7012 57.5684 16.1621 58.3008 12.7441 58.3008H10.2539Z" fill="#1DD7FD"/>
</svg>
