<svg width="517" height="349" viewBox="0 0 517 349" fill="none" xmlns="http://www.w3.org/2000/svg">
<path d="M142.198 152.82C132.29 158.447 127.821 163.284 127.069 165.467C128.649 226.441 116.229 266.865 160.943 311.127C196.715 346.537 265.728 350.121 295.764 347.486C271.6 344.55 253.985 329.194 241.565 305.256C231.628 286.105 230.348 258.283 230.951 246.766V185.566C229.325 172.197 232.304 141.905 234.336 127.979C231 130.5 224.04 136.335 210.852 140.851C193.687 146.73 160.49 142.432 142.198 152.82Z" fill="url(#paint0_linear_15_457)"/>
<path d="M127.067 165.693V111.268H191.654C197.3 111.268 215.818 109.009 227.787 102.234C237.362 96.8145 245.176 89.5126 247.434 86.4263C244.002 91.1235 237.272 116.085 234.336 127.979C229.458 132.676 218.603 138.217 213.786 140.4C194.138 147.4 161.393 143.11 145.133 151.465C132.125 158.15 127.669 163.735 127.067 165.693Z" fill="url(#paint1_radial_15_457)"/>
<path d="M43.7827 111.557C10.9018 112.099 1.32665 134.215 0.64916 145.206C-0.25416 133.824 0.272777 94.2434 0.64916 75.8759C6.06908 13.0048 56.9561 -0.454654 81.7222 0.674496H349.331C291.157 6.63641 257.042 60.67 247.256 86.9416C229.731 107.357 204.273 111.858 193.734 111.557H126.888H43.7827Z" fill="url(#paint2_linear_15_457)"/>
<path d="M381.806 144.96C292 151 262.417 244.927 261.89 285.878C261.482 294.233 267.987 314.558 287.183 327.656C306.379 340.754 334.833 343.238 357.642 326.301C375.889 312.751 380.752 290.695 380.903 281.361V170.704C380.903 151.193 381.505 145.411 381.806 144.96Z" fill="url(#paint3_radial_15_457)"/>
<path d="M381.806 144.96C386.864 119.847 407.851 112.271 417.712 111.669C346.576 108.733 324.36 114.655 292.518 142.432C267.044 164.654 260.761 201.116 260.761 216.322C259.858 248.3 261.137 276.318 261.89 286.329C269.659 179.738 345.071 147.67 381.806 144.96Z" fill="url(#paint4_linear_15_457)"/>
<path d="M400.995 0.655396C369.159 0.655396 252.18 18.6642 260.755 216.718C262.2 188.174 271.516 169.532 275.807 163.434C311.488 46.0027 387.445 5.32255 421.997 0.655396H400.995Z" fill="url(#paint5_linear_15_457)"/>
<path d="M419.971 0.654176C334.878 17.9979 288.378 116.386 275.807 163.434C302.184 117.907 357.491 110.031 381.806 111.763C395.205 111.687 429.14 111.582 457.685 111.763C493.366 111.988 508.045 88.9537 512.787 76.5331C517.53 64.1124 520.014 37.2386 502.399 18.2689C488.307 3.09314 471.084 0.202515 464.234 0.654176H419.971Z" fill="url(#paint6_linear_15_457)"/>
<defs>
<linearGradient id="paint0_linear_15_457" x1="217.852" y1="129.56" x2="152.136" y2="328.516" gradientUnits="userSpaceOnUse">
<stop stop-color="#6535D5"/>
<stop offset="0.5" stop-color="#8D47F7"/>
<stop offset="1" stop-color="#A54FFA"/>
</linearGradient>
<radialGradient id="paint1_radial_15_457" cx="0" cy="0" r="1" gradientUnits="userSpaceOnUse" gradientTransform="translate(173.814 50.2935) rotate(86.926) scale(122.124 308.081)">
<stop offset="0.440813" stop-color="#301EB0"/>
<stop offset="0.702483" stop-color="#5325C8"/>
</radialGradient>
<linearGradient id="paint2_linear_15_457" x1="14.1989" y1="35.6145" x2="293.777" y2="89.1362" gradientUnits="userSpaceOnUse">
<stop stop-color="#14D9FD"/>
<stop offset="1" stop-color="#5553F6"/>
</linearGradient>
<radialGradient id="paint3_radial_15_457" cx="0" cy="0" r="1" gradientUnits="userSpaceOnUse" gradientTransform="translate(353.492 384.748) rotate(-95.8006) scale(286.01 177.469)">
<stop offset="0.272929" stop-color="#13B085"/>
<stop offset="0.561118" stop-color="#1F6390"/>
<stop offset="0.760351" stop-color="#1F3D89"/>
</radialGradient>
<linearGradient id="paint4_linear_15_457" x1="339.081" y1="111.107" x2="339.081" y2="286.329" gradientUnits="userSpaceOnUse">
<stop stop-color="#08225F"/>
<stop offset="0.326501" stop-color="#16217D"/>
<stop offset="1" stop-color="#22438A"/>
</linearGradient>
<linearGradient id="paint5_linear_15_457" x1="378.108" y1="-7.29321" x2="291.389" y2="192.792" gradientUnits="userSpaceOnUse">
<stop stop-color="#0FDF87"/>
<stop offset="0.249255" stop-color="#10CC7F"/>
<stop offset="0.56549" stop-color="#16AA78"/>
<stop offset="1" stop-color="#159D79"/>
</linearGradient>
<linearGradient id="paint6_linear_15_457" x1="513.239" y1="56.8859" x2="304.12" y2="76.9847" gradientUnits="userSpaceOnUse">
<stop stop-color="#0BF58D"/>
<stop offset="0.5" stop-color="#13EA8C"/>
<stop offset="1" stop-color="#19B97D"/>
</linearGradient>
</defs>
</svg>
