<svg width="72" height="60" viewBox="0 0 72 60" fill="none" xmlns="http://www.w3.org/2000/svg">
<path d="M44.5547 59.0117C42.6016 59.0117 40.8438 58.7188 39.2812 58.1328C37.8164 57.5469 37.084 56.5215 37.084 55.0566C37.084 53.7871 37.8164 51.6875 39.2812 48.7578C42.2109 42.8984 44.4082 36.7949 45.873 30.4473C47.3379 24.002 48.0703 16.873 48.0703 9.06055C48.0703 6.52148 48.9492 4.4707 50.707 2.9082C52.5625 1.3457 55.1992 0.564453 58.6172 0.564453H60.8145C64.1348 0.564453 66.7227 1.24805 68.5781 2.61523C70.4336 3.98242 71.3613 5.78906 71.3613 8.03516C71.3613 17.7031 69.7988 26.4434 66.6738 34.2559C63.5488 41.9707 59.8379 48.0254 55.541 52.4199C51.3418 56.8145 47.6797 59.0117 44.5547 59.0117ZM8.37305 59.0117C6.41992 59.0117 4.66211 58.7188 3.09961 58.1328C1.63477 57.5469 0.902344 56.5215 0.902344 55.0566C0.902344 53.7871 1.63477 51.6875 3.09961 48.7578C6.0293 42.8984 8.22656 36.7949 9.69141 30.4473C11.1562 24.002 11.8887 16.873 11.8887 9.06055C11.8887 6.52148 12.7676 4.4707 14.5254 2.9082C16.3809 1.3457 19.0176 0.564453 22.4355 0.564453H24.6328C27.9531 0.564453 30.541 1.24805 32.3965 2.61523C34.252 3.98242 35.1797 5.78906 35.1797 8.03516C35.1797 17.7031 33.6172 26.4434 30.4922 34.2559C27.3672 41.9707 23.6562 48.0254 19.3594 52.4199C15.1602 56.8145 11.498 59.0117 8.37305 59.0117Z" fill="#5F56E1"/>
</svg>
